<?xml version="1.0" encoding="utf-8"?>
<!-- Generator: Adobe Illustrator 16.0.0, SVG Export Plug-In . SVG Version: 6.00 Build 0)  -->
<!DOCTYPE svg PUBLIC "-//W3C//DTD SVG 1.1//EN" "http://www.w3.org/Graphics/SVG/1.1/DTD/svg11.dtd">
<svg version="1.1" id="Layer_1" xmlns="http://www.w3.org/2000/svg" xmlns:xlink="http://www.w3.org/1999/xlink" x="0px" y="0px"
	 width="181.366px" height="46.791px" viewBox="0 0 181.366 46.791" enable-background="new 0 0 181.366 46.791"
	 xml:space="preserve">
<g>
	<path fill="#F4F4F4" d="M179.652,33.925c-1.706,0.96-3.391,2.001-5.054,3.118c-1.663,1.118-3.235,2.311-4.713,3.568h9.767v3.316
		h-14.907v-2.734c0.472-0.47,1.051-0.993,1.739-1.566c0.69-0.58,1.424-1.159,2.207-1.757c0.781-0.594,1.593-1.186,2.432-1.774
		c0.839-0.587,1.644-1.142,2.418-1.657h-8.796v-3.335h14.907V33.925z"/>
	<path fill="#F4F4F4" d="M179.652,27.662h-14.907V17.595h2.816v6.712h2.927v-5.958h2.753v5.958h3.589V17.1h2.822V27.662z"/>
	<path fill="#F4F4F4" d="M164.745,3.569h2.863v4.497h12.044v3.356h-12.044v4.496h-2.863V3.569z"/>
</g>
<g>
	<path fill="#F4F4F4" d="M15.843,34.627v1.839h-2.885v7.728h-2.154v-7.728H7.921v-1.839H15.843z"/>
	<path fill="#F4F4F4" d="M22.358,40.621c0-0.646,0.098-1.211,0.296-1.691c0.198-0.486,0.458-0.887,0.781-1.212
		c0.321-0.319,0.69-0.565,1.108-0.728c0.419-0.165,0.85-0.25,1.292-0.25c1.031,0,1.844,0.316,2.442,0.948
		c0.597,0.629,0.898,1.558,0.898,2.778c0,0.118-0.004,0.254-0.015,0.394c-0.008,0.145-0.019,0.27-0.027,0.379h-4.665
		c0.046,0.425,0.244,0.758,0.593,1.012c0.35,0.246,0.819,0.374,1.408,0.374c0.379,0,0.749-0.037,1.111-0.108
		c0.361-0.072,0.661-0.153,0.89-0.258l0.276,1.672c-0.109,0.055-0.258,0.113-0.441,0.165c-0.184,0.059-0.388,0.105-0.613,0.144
		c-0.226,0.044-0.466,0.08-0.726,0.107c-0.258,0.028-0.515,0.041-0.77,0.041c-0.656,0-1.223-0.098-1.707-0.292
		c-0.482-0.192-0.883-0.459-1.2-0.794c-0.318-0.337-0.554-0.731-0.705-1.192C22.434,41.649,22.358,41.152,22.358,40.621z
		 M27.189,39.834c-0.013-0.175-0.041-0.349-0.091-0.513c-0.052-0.166-0.129-0.314-0.236-0.443c-0.106-0.128-0.237-0.235-0.399-0.316
		c-0.163-0.082-0.363-0.127-0.603-0.127c-0.229,0-0.427,0.039-0.593,0.121c-0.164,0.079-0.302,0.181-0.412,0.308
		c-0.112,0.132-0.196,0.28-0.254,0.452c-0.063,0.17-0.105,0.344-0.133,0.519H27.189z"/>
	<path fill="#F4F4F4" d="M36.034,40.565c0-0.526,0.084-1.019,0.256-1.485c0.169-0.464,0.414-0.871,0.737-1.211
		c0.322-0.346,0.712-0.62,1.173-0.825c0.458-0.201,0.986-0.304,1.574-0.304c0.385,0,0.742,0.036,1.062,0.103
		c0.322,0.07,0.634,0.173,0.94,0.301l-0.43,1.639c-0.192-0.072-0.405-0.139-0.634-0.191c-0.229-0.056-0.487-0.082-0.772-0.082
		c-0.607,0-1.062,0.188-1.361,0.566c-0.297,0.375-0.447,0.871-0.447,1.49c0,0.655,0.141,1.157,0.422,1.518
		c0.28,0.361,0.77,0.542,1.469,0.542c0.248,0,0.516-0.027,0.799-0.072c0.285-0.044,0.546-0.121,0.788-0.225l0.288,1.686
		c-0.238,0.104-0.538,0.189-0.896,0.262c-0.357,0.073-0.753,0.112-1.186,0.112c-0.664,0-1.234-0.098-1.711-0.3
		c-0.479-0.195-0.872-0.461-1.181-0.805c-0.306-0.34-0.533-0.74-0.675-1.211C36.104,41.612,36.034,41.107,36.034,40.565z"/>
	<path fill="#F4F4F4" d="M48.895,44.194v-10.38l2.058-0.332v3.48c0.137-0.046,0.316-0.093,0.53-0.132
		c0.218-0.041,0.428-0.062,0.628-0.062c0.59,0,1.079,0.08,1.471,0.242c0.393,0.158,0.704,0.387,0.939,0.685
		c0.233,0.292,0.399,0.641,0.497,1.046c0.096,0.405,0.144,0.857,0.144,1.352v4.101h-2.055v-3.853c0-0.661-0.086-1.133-0.256-1.406
		c-0.17-0.274-0.486-0.415-0.946-0.415c-0.184,0-0.356,0.016-0.518,0.051c-0.159,0.031-0.305,0.064-0.434,0.102v5.521H48.895z"/>
	<path fill="#F4F4F4" d="M62.641,37.181c0.35-0.097,0.802-0.195,1.353-0.283c0.552-0.084,1.133-0.129,1.74-0.129
		c0.615,0,1.131,0.08,1.537,0.242c0.409,0.158,0.735,0.387,0.973,0.685c0.241,0.292,0.41,0.641,0.513,1.046
		c0.102,0.405,0.151,0.857,0.151,1.352v4.101h-2.057v-3.853c0-0.661-0.089-1.133-0.262-1.406c-0.176-0.274-0.5-0.415-0.98-0.415
		c-0.148,0-0.303,0.009-0.469,0.022c-0.167,0.014-0.313,0.031-0.441,0.048v5.604h-2.058V37.181z"/>
	<path fill="#F4F4F4" d="M83.177,40.551c0,0.568-0.083,1.093-0.247,1.564c-0.166,0.477-0.406,0.881-0.719,1.214
		c-0.313,0.337-0.688,0.599-1.125,0.783c-0.435,0.183-0.925,0.274-1.468,0.274c-0.534,0-1.021-0.092-1.458-0.274
		c-0.437-0.185-0.812-0.446-1.125-0.783c-0.313-0.333-0.556-0.737-0.73-1.214c-0.176-0.472-0.262-0.996-0.262-1.564
		c0-0.573,0.09-1.093,0.268-1.56c0.181-0.472,0.43-0.873,0.748-1.203c0.317-0.331,0.693-0.591,1.13-0.77
		c0.438-0.188,0.915-0.279,1.43-0.279c0.524,0,1.002,0.091,1.44,0.279c0.439,0.179,0.814,0.438,1.127,0.77
		c0.311,0.33,0.554,0.731,0.73,1.203C83.089,39.458,83.177,39.978,83.177,40.551z M81.08,40.551c0-0.633-0.126-1.133-0.379-1.497
		c-0.254-0.365-0.617-0.546-1.083-0.546c-0.47,0-0.834,0.181-1.093,0.546c-0.255,0.364-0.383,0.864-0.383,1.497
		c0,0.634,0.128,1.138,0.383,1.512c0.259,0.372,0.623,0.562,1.093,0.562c0.466,0,0.829-0.189,1.083-0.562
		C80.954,41.689,81.08,41.185,81.08,40.551z"/>
	<path fill="#F4F4F4" d="M93.28,44.33c-0.597-0.01-1.085-0.074-1.456-0.193c-0.372-0.116-0.667-0.288-0.885-0.502
		c-0.214-0.218-0.36-0.479-0.44-0.787c-0.077-0.305-0.117-0.656-0.117-1.041v-7.992l2.055-0.332v7.908
		c0,0.188,0.015,0.353,0.047,0.495c0.021,0.151,0.077,0.274,0.154,0.373c0.077,0.104,0.192,0.186,0.34,0.256
		c0.146,0.058,0.345,0.102,0.592,0.122L93.28,44.33z"/>
	<path fill="#F4F4F4" d="M107.152,40.551c0,0.568-0.081,1.093-0.252,1.564c-0.163,0.477-0.402,0.881-0.714,1.214
		c-0.316,0.337-0.692,0.599-1.128,0.783c-0.436,0.183-0.928,0.274-1.468,0.274c-0.535,0-1.021-0.092-1.458-0.274
		c-0.434-0.185-0.813-0.446-1.127-0.783c-0.31-0.333-0.555-0.737-0.73-1.214c-0.173-0.472-0.257-0.996-0.257-1.564
		c0-0.573,0.084-1.093,0.267-1.56c0.181-0.472,0.428-0.873,0.746-1.203c0.318-0.331,0.693-0.591,1.132-0.77
		c0.434-0.188,0.911-0.279,1.428-0.279c0.523,0,1.004,0.091,1.44,0.279c0.437,0.179,0.81,0.438,1.127,0.77
		c0.313,0.33,0.559,0.731,0.729,1.203C107.063,39.458,107.152,39.978,107.152,40.551z M105.051,40.551
		c0-0.633-0.126-1.133-0.376-1.497c-0.254-0.365-0.612-0.546-1.085-0.546c-0.471,0-0.835,0.181-1.089,0.546
		c-0.258,0.364-0.387,0.864-0.387,1.497c0,0.634,0.129,1.138,0.387,1.512c0.254,0.372,0.618,0.562,1.089,0.562
		c0.473,0,0.831-0.189,1.085-0.562C104.925,41.689,105.051,41.185,105.051,40.551z"/>
	<path fill="#F4F4F4" d="M120.619,43.283c0,1.186-0.299,2.069-0.904,2.643c-0.601,0.579-1.53,0.865-2.794,0.865
		c-0.44,0-0.883-0.041-1.322-0.12c-0.445-0.078-0.854-0.184-1.229-0.312l0.354-1.727c0.325,0.133,0.665,0.234,1.016,0.308
		c0.359,0.073,0.759,0.108,1.211,0.108c0.588,0,1.007-0.129,1.252-0.388c0.239-0.259,0.361-0.588,0.361-0.99v-0.262
		c-0.222,0.099-0.448,0.175-0.685,0.226c-0.236,0.052-0.489,0.076-0.766,0.076c-1.002,0-1.771-0.3-2.305-0.888
		c-0.53-0.598-0.801-1.428-0.801-2.496c0-0.533,0.087-1.017,0.25-1.453c0.164-0.438,0.411-0.811,0.724-1.125
		c0.317-0.313,0.706-0.553,1.166-0.723c0.46-0.169,0.979-0.257,1.563-0.257c0.247,0,0.501,0.011,0.766,0.033
		c0.259,0.022,0.521,0.055,0.778,0.091c0.26,0.037,0.506,0.083,0.738,0.133c0.234,0.05,0.442,0.105,0.626,0.155V43.283z
		 M116.107,40.327c0,1.152,0.464,1.726,1.394,1.726c0.211,0,0.409-0.028,0.597-0.081c0.18-0.057,0.335-0.119,0.466-0.192v-3.288
		c-0.102-0.017-0.222-0.031-0.359-0.048c-0.135-0.01-0.299-0.02-0.479-0.02c-0.542,0-0.952,0.179-1.215,0.539
		C116.239,39.322,116.107,39.776,116.107,40.327z"/>
	<path fill="#F4F4F4" d="M130.419,34.838c0,0.374-0.118,0.673-0.365,0.889c-0.243,0.214-0.533,0.323-0.865,0.323
		c-0.33,0-0.617-0.109-0.857-0.323c-0.247-0.216-0.369-0.515-0.369-0.889c0-0.378,0.122-0.678,0.369-0.894
		c0.24-0.218,0.527-0.323,0.857-0.323c0.332,0,0.622,0.105,0.865,0.323C130.301,34.161,130.419,34.46,130.419,34.838z
		 M130.227,44.194h-2.058v-7.261h2.058V44.194z"/>
	<path fill="#F4F4F4" d="M137.428,40.621c0-0.646,0.099-1.211,0.298-1.691c0.2-0.486,0.457-0.887,0.783-1.212
		c0.32-0.319,0.688-0.565,1.106-0.728c0.422-0.165,0.852-0.25,1.29-0.25c1.029,0,1.844,0.316,2.444,0.948
		c0.597,0.629,0.899,1.558,0.899,2.778c0,0.118-0.008,0.254-0.018,0.394c-0.008,0.145-0.016,0.27-0.024,0.379h-4.666
		c0.046,0.425,0.246,0.758,0.594,1.012c0.349,0.246,0.818,0.374,1.407,0.374c0.377,0,0.746-0.037,1.11-0.108
		c0.365-0.072,0.659-0.153,0.887-0.258l0.279,1.672c-0.107,0.055-0.259,0.113-0.441,0.165c-0.185,0.059-0.388,0.105-0.613,0.144
		c-0.226,0.044-0.466,0.08-0.726,0.107c-0.258,0.028-0.515,0.041-0.773,0.041c-0.65,0-1.222-0.098-1.703-0.292
		c-0.484-0.192-0.884-0.459-1.204-0.794c-0.313-0.337-0.547-0.731-0.704-1.192C137.501,41.649,137.428,41.152,137.428,40.621z
		 M142.26,39.834c-0.008-0.175-0.041-0.349-0.089-0.513c-0.052-0.166-0.133-0.314-0.236-0.443c-0.107-0.128-0.239-0.235-0.4-0.316
		c-0.158-0.082-0.36-0.127-0.602-0.127c-0.228,0-0.426,0.039-0.592,0.121c-0.165,0.079-0.304,0.181-0.411,0.308
		c-0.115,0.132-0.2,0.28-0.256,0.452c-0.063,0.17-0.104,0.344-0.133,0.519H142.26z"/>
	<path fill="#F4F4F4" d="M153.537,42.717c0.376,0,0.643-0.036,0.799-0.112c0.155-0.073,0.234-0.214,0.234-0.426
		c0-0.167-0.1-0.309-0.306-0.437c-0.2-0.123-0.512-0.264-0.924-0.422c-0.319-0.115-0.614-0.242-0.875-0.371
		c-0.264-0.128-0.484-0.283-0.67-0.458c-0.182-0.181-0.324-0.398-0.429-0.646c-0.101-0.247-0.151-0.548-0.151-0.895
		c0-0.682,0.256-1.22,0.761-1.617c0.504-0.393,1.202-0.595,2.079-0.595c0.447,0,0.87,0.04,1.274,0.118
		c0.406,0.08,0.726,0.161,0.966,0.255l-0.359,1.603c-0.238-0.082-0.5-0.159-0.78-0.225c-0.28-0.058-0.594-0.098-0.943-0.098
		c-0.642,0-0.968,0.187-0.968,0.542c0,0.081,0.015,0.153,0.042,0.221c0.025,0.064,0.084,0.126,0.165,0.184
		c0.085,0.062,0.198,0.127,0.339,0.196c0.143,0.069,0.325,0.147,0.545,0.229c0.448,0.168,0.82,0.33,1.118,0.495
		c0.294,0.165,0.528,0.335,0.701,0.524c0.166,0.189,0.285,0.396,0.354,0.627c0.067,0.229,0.105,0.494,0.105,0.797
		c0,0.716-0.268,1.262-0.807,1.629c-0.541,0.365-1.3,0.55-2.287,0.55c-0.643,0-1.181-0.058-1.606-0.166
		c-0.429-0.108-0.726-0.201-0.891-0.274l0.343-1.674c0.353,0.143,0.708,0.244,1.074,0.324
		C152.813,42.681,153.178,42.717,153.537,42.717z"/>
</g>
<g>
	<g>
		<path fill="#FFFFFF" d="M179.652,33.925c-1.705,0.96-3.391,2.001-5.053,3.118c-1.664,1.118-3.236,2.311-4.713,3.568h9.766v3.316
			h-14.906v-2.734c0.471-0.47,1.051-0.993,1.738-1.566c0.691-0.58,1.424-1.159,2.207-1.757c0.781-0.594,1.594-1.186,2.432-1.774
			c0.84-0.587,1.645-1.142,2.418-1.657h-8.795v-3.335h14.906V33.925z"/>
		<path fill="#FFFFFF" d="M179.652,27.662h-14.906V17.595h2.816v6.712h2.926v-5.958h2.754v5.958h3.588V17.1h2.822V27.662z"/>
		<path fill="#FFFFFF" d="M164.746,3.569h2.863v4.497h12.043v3.356h-12.043v4.496h-2.863V3.569z"/>
	</g>
	<g>
		<path fill="#FFFFFF" d="M15.843,34.627v1.839h-2.885v7.728h-2.154v-7.728H7.921v-1.839H15.843z"/>
		<path fill="#FFFFFF" d="M22.358,40.621c0-0.646,0.098-1.211,0.296-1.691c0.198-0.486,0.458-0.887,0.781-1.212
			c0.321-0.319,0.69-0.565,1.108-0.728c0.419-0.165,0.85-0.25,1.292-0.25c1.031,0,1.844,0.316,2.442,0.948
			c0.597,0.629,0.898,1.558,0.898,2.778c0,0.118-0.004,0.254-0.015,0.394c-0.008,0.145-0.019,0.27-0.027,0.379h-4.665
			c0.046,0.425,0.244,0.758,0.593,1.012c0.35,0.246,0.819,0.374,1.408,0.374c0.379,0,0.749-0.037,1.111-0.108
			c0.361-0.072,0.661-0.153,0.89-0.258l0.276,1.672c-0.109,0.055-0.258,0.113-0.441,0.165c-0.184,0.059-0.388,0.105-0.613,0.144
			c-0.226,0.044-0.466,0.08-0.726,0.107c-0.258,0.028-0.515,0.041-0.77,0.041c-0.656,0-1.223-0.098-1.707-0.292
			c-0.482-0.192-0.883-0.459-1.2-0.794c-0.318-0.337-0.554-0.731-0.705-1.192C22.434,41.649,22.358,41.152,22.358,40.621z
			 M27.189,39.834c-0.013-0.175-0.041-0.349-0.091-0.513c-0.052-0.166-0.129-0.314-0.236-0.443
			c-0.106-0.128-0.237-0.235-0.399-0.316c-0.163-0.082-0.363-0.127-0.603-0.127c-0.229,0-0.427,0.039-0.593,0.121
			c-0.164,0.079-0.302,0.181-0.412,0.308c-0.112,0.132-0.196,0.28-0.254,0.452c-0.063,0.17-0.105,0.344-0.133,0.519H27.189z"/>
		<path fill="#FFFFFF" d="M36.034,40.565c0-0.526,0.084-1.019,0.256-1.485c0.169-0.464,0.414-0.871,0.737-1.211
			c0.322-0.346,0.712-0.62,1.173-0.825c0.458-0.201,0.986-0.304,1.574-0.304c0.385,0,0.742,0.036,1.062,0.103
			c0.322,0.07,0.634,0.173,0.94,0.301l-0.43,1.639c-0.192-0.072-0.405-0.139-0.634-0.191c-0.229-0.056-0.487-0.082-0.772-0.082
			c-0.607,0-1.062,0.188-1.361,0.566c-0.297,0.375-0.447,0.871-0.447,1.49c0,0.655,0.141,1.157,0.422,1.518
			c0.28,0.361,0.77,0.542,1.469,0.542c0.248,0,0.516-0.027,0.799-0.072c0.285-0.044,0.546-0.121,0.788-0.225l0.288,1.686
			c-0.238,0.104-0.538,0.189-0.896,0.262c-0.357,0.073-0.753,0.112-1.186,0.112c-0.664,0-1.234-0.098-1.711-0.3
			c-0.479-0.195-0.872-0.461-1.181-0.805c-0.306-0.34-0.533-0.74-0.675-1.211C36.104,41.612,36.034,41.107,36.034,40.565z"/>
		<path fill="#FFFFFF" d="M48.895,44.194v-10.38l2.058-0.332v3.48c0.137-0.046,0.316-0.093,0.53-0.132
			c0.218-0.041,0.428-0.062,0.628-0.062c0.59,0,1.079,0.08,1.471,0.242c0.393,0.158,0.704,0.387,0.939,0.685
			c0.233,0.292,0.399,0.641,0.497,1.046c0.096,0.405,0.144,0.857,0.144,1.352v4.101h-2.055v-3.853c0-0.661-0.086-1.133-0.256-1.406
			c-0.17-0.274-0.486-0.415-0.946-0.415c-0.184,0-0.356,0.016-0.518,0.051c-0.159,0.031-0.305,0.064-0.434,0.102v5.521H48.895z"/>
		<path fill="#FFFFFF" d="M62.641,37.181c0.35-0.097,0.802-0.195,1.353-0.283c0.552-0.084,1.133-0.129,1.74-0.129
			c0.615,0,1.131,0.08,1.537,0.242c0.409,0.158,0.735,0.387,0.973,0.685c0.241,0.292,0.41,0.641,0.513,1.046
			c0.102,0.405,0.151,0.857,0.151,1.352v4.101h-2.057v-3.853c0-0.661-0.089-1.133-0.262-1.406c-0.176-0.274-0.5-0.415-0.98-0.415
			c-0.148,0-0.303,0.009-0.469,0.022c-0.167,0.014-0.313,0.031-0.441,0.048v5.604h-2.058V37.181z"/>
		<path fill="#FFFFFF" d="M83.177,40.551c0,0.568-0.083,1.093-0.247,1.564c-0.166,0.477-0.406,0.881-0.719,1.214
			c-0.313,0.337-0.688,0.599-1.125,0.783c-0.435,0.183-0.925,0.274-1.468,0.274c-0.534,0-1.021-0.092-1.458-0.274
			c-0.437-0.185-0.812-0.446-1.125-0.783c-0.313-0.333-0.556-0.737-0.73-1.214c-0.176-0.472-0.262-0.996-0.262-1.564
			c0-0.573,0.09-1.093,0.268-1.56c0.181-0.472,0.43-0.873,0.748-1.203c0.317-0.331,0.693-0.591,1.13-0.77
			c0.438-0.188,0.915-0.279,1.43-0.279c0.524,0,1.002,0.091,1.44,0.279c0.439,0.179,0.814,0.438,1.127,0.77
			c0.311,0.33,0.554,0.731,0.73,1.203C83.089,39.458,83.177,39.978,83.177,40.551z M81.08,40.551c0-0.633-0.126-1.133-0.379-1.497
			c-0.254-0.365-0.617-0.546-1.083-0.546c-0.47,0-0.834,0.181-1.093,0.546c-0.255,0.364-0.383,0.864-0.383,1.497
			c0,0.634,0.128,1.138,0.383,1.512c0.259,0.372,0.623,0.562,1.093,0.562c0.466,0,0.829-0.189,1.083-0.562
			C80.954,41.689,81.08,41.185,81.08,40.551z"/>
		<path fill="#FFFFFF" d="M93.281,44.33c-0.598-0.01-1.086-0.074-1.457-0.193c-0.371-0.116-0.666-0.288-0.885-0.502
			c-0.213-0.218-0.359-0.479-0.439-0.787c-0.078-0.305-0.117-0.656-0.117-1.041v-7.992l2.055-0.332v7.908
			c0,0.188,0.014,0.353,0.047,0.495c0.021,0.151,0.076,0.274,0.154,0.373c0.076,0.104,0.191,0.186,0.34,0.256
			c0.146,0.058,0.344,0.102,0.592,0.122L93.281,44.33z"/>
		<path fill="#FFFFFF" d="M107.152,40.551c0,0.568-0.08,1.093-0.252,1.564c-0.162,0.477-0.402,0.881-0.713,1.214
			c-0.316,0.337-0.693,0.599-1.129,0.783c-0.436,0.183-0.928,0.274-1.467,0.274c-0.535,0-1.021-0.092-1.459-0.274
			c-0.434-0.185-0.813-0.446-1.127-0.783c-0.309-0.333-0.555-0.737-0.73-1.214c-0.172-0.472-0.256-0.996-0.256-1.564
			c0-0.573,0.084-1.093,0.266-1.56c0.182-0.472,0.428-0.873,0.746-1.203c0.318-0.331,0.693-0.591,1.133-0.77
			c0.434-0.188,0.91-0.279,1.428-0.279c0.523,0,1.004,0.091,1.439,0.279c0.438,0.179,0.811,0.438,1.127,0.77
			c0.313,0.33,0.559,0.731,0.729,1.203C107.064,39.458,107.152,39.978,107.152,40.551z M105.052,40.551
			c0-0.633-0.127-1.133-0.377-1.497c-0.254-0.365-0.611-0.546-1.084-0.546c-0.471,0-0.836,0.181-1.09,0.546
			c-0.258,0.364-0.387,0.864-0.387,1.497c0,0.634,0.129,1.138,0.387,1.512c0.254,0.372,0.619,0.562,1.09,0.562
			c0.473,0,0.83-0.189,1.084-0.562C104.925,41.689,105.052,41.185,105.052,40.551z"/>
		<path fill="#FFFFFF" d="M120.619,43.283c0,1.186-0.299,2.069-0.904,2.643c-0.6,0.579-1.529,0.865-2.793,0.865
			c-0.441,0-0.883-0.041-1.322-0.12c-0.445-0.078-0.855-0.184-1.23-0.312l0.355-1.727c0.324,0.133,0.664,0.234,1.016,0.308
			c0.359,0.073,0.758,0.108,1.211,0.108c0.588,0,1.006-0.129,1.252-0.388c0.238-0.259,0.361-0.588,0.361-0.99v-0.262
			c-0.223,0.099-0.449,0.175-0.686,0.226c-0.236,0.052-0.488,0.076-0.766,0.076c-1.002,0-1.77-0.3-2.305-0.888
			c-0.529-0.598-0.801-1.428-0.801-2.496c0-0.533,0.088-1.017,0.25-1.453c0.164-0.438,0.412-0.811,0.725-1.125
			c0.316-0.313,0.705-0.553,1.166-0.723c0.459-0.169,0.979-0.257,1.563-0.257c0.248,0,0.502,0.011,0.766,0.033
			c0.26,0.022,0.521,0.055,0.779,0.091c0.26,0.037,0.506,0.083,0.738,0.133c0.234,0.05,0.441,0.105,0.625,0.155V43.283z
			 M116.107,40.327c0,1.152,0.465,1.726,1.395,1.726c0.211,0,0.408-0.028,0.596-0.081c0.18-0.057,0.336-0.119,0.467-0.192v-3.288
			c-0.102-0.017-0.223-0.031-0.359-0.048c-0.135-0.01-0.299-0.02-0.48-0.02c-0.541,0-0.951,0.179-1.215,0.539
			C116.24,39.322,116.107,39.776,116.107,40.327z"/>
		<path fill="#FFFFFF" d="M130.419,34.838c0,0.374-0.117,0.673-0.365,0.889c-0.242,0.214-0.533,0.323-0.865,0.323
			c-0.33,0-0.617-0.109-0.857-0.323c-0.246-0.216-0.369-0.515-0.369-0.889c0-0.378,0.123-0.678,0.369-0.894
			c0.24-0.218,0.527-0.323,0.857-0.323c0.332,0,0.623,0.105,0.865,0.323C130.302,34.161,130.419,34.46,130.419,34.838z
			 M130.228,44.194h-2.059v-7.261h2.059V44.194z"/>
		<path fill="#FFFFFF" d="M137.429,40.621c0-0.646,0.098-1.211,0.297-1.691c0.201-0.486,0.457-0.887,0.783-1.212
			c0.32-0.319,0.688-0.565,1.107-0.728c0.422-0.165,0.852-0.25,1.289-0.25c1.029,0,1.844,0.316,2.445,0.948
			c0.596,0.629,0.898,1.558,0.898,2.778c0,0.118-0.008,0.254-0.018,0.394c-0.008,0.145-0.016,0.27-0.023,0.379h-4.666
			c0.045,0.425,0.246,0.758,0.594,1.012c0.348,0.246,0.818,0.374,1.406,0.374c0.377,0,0.746-0.037,1.111-0.108
			c0.365-0.072,0.658-0.153,0.887-0.258l0.279,1.672c-0.107,0.055-0.26,0.113-0.441,0.165c-0.186,0.059-0.389,0.105-0.613,0.144
			c-0.227,0.044-0.467,0.08-0.727,0.107c-0.258,0.028-0.514,0.041-0.773,0.041c-0.65,0-1.221-0.098-1.703-0.292
			c-0.484-0.192-0.883-0.459-1.203-0.794c-0.314-0.337-0.547-0.731-0.705-1.192C137.501,41.649,137.429,41.152,137.429,40.621z
			 M142.261,39.834c-0.008-0.175-0.041-0.349-0.09-0.513c-0.051-0.166-0.133-0.314-0.236-0.443c-0.107-0.128-0.238-0.235-0.4-0.316
			c-0.158-0.082-0.359-0.127-0.602-0.127c-0.227,0-0.426,0.039-0.592,0.121c-0.164,0.079-0.303,0.181-0.41,0.308
			c-0.115,0.132-0.201,0.28-0.256,0.452c-0.064,0.17-0.105,0.344-0.133,0.519H142.261z"/>
		<path fill="#FFFFFF" d="M153.537,42.717c0.377,0,0.643-0.036,0.799-0.112c0.156-0.073,0.234-0.214,0.234-0.426
			c0-0.167-0.1-0.309-0.305-0.437c-0.201-0.123-0.512-0.264-0.924-0.422c-0.32-0.115-0.615-0.242-0.875-0.371
			c-0.264-0.128-0.484-0.283-0.67-0.458c-0.182-0.181-0.324-0.398-0.43-0.646c-0.1-0.247-0.15-0.548-0.15-0.895
			c0-0.682,0.256-1.22,0.76-1.617c0.504-0.393,1.203-0.595,2.08-0.595c0.447,0,0.869,0.04,1.273,0.118
			c0.406,0.08,0.727,0.161,0.967,0.255l-0.359,1.603c-0.238-0.082-0.5-0.159-0.781-0.225c-0.279-0.058-0.594-0.098-0.943-0.098
			c-0.641,0-0.967,0.187-0.967,0.542c0,0.081,0.014,0.153,0.041,0.221c0.025,0.064,0.084,0.126,0.166,0.184
			c0.084,0.062,0.197,0.127,0.338,0.196c0.143,0.069,0.326,0.147,0.545,0.229c0.449,0.168,0.82,0.33,1.119,0.495
			c0.293,0.165,0.527,0.335,0.701,0.524c0.166,0.189,0.285,0.396,0.354,0.627c0.068,0.229,0.105,0.494,0.105,0.797
			c0,0.716-0.268,1.262-0.807,1.629c-0.541,0.365-1.299,0.55-2.287,0.55c-0.643,0-1.18-0.058-1.605-0.166
			c-0.43-0.108-0.727-0.201-0.891-0.274l0.342-1.674c0.354,0.143,0.709,0.244,1.074,0.324
			C152.814,42.681,153.179,42.717,153.537,42.717z"/>
	</g>
</g>
<g display="none">
	<g display="inline">
		<path fill="#B5B5B5" d="M10.26,26.084c0.973,0,1.774-0.082,2.408-0.24c0.633-0.16,1.143-0.385,1.527-0.664
			c0.383-0.276,0.647-0.608,0.796-0.994c0.146-0.384,0.22-0.811,0.22-1.281c0-1.003-0.47-1.835-1.415-2.5
			c-0.942-0.662-2.563-1.375-4.863-2.145c-1.002-0.353-2.005-0.759-3.008-1.217c-1.002-0.456-1.902-1.033-2.697-1.723
			c-0.795-0.691-1.447-1.533-1.944-2.522C0.782,11.812,0.53,10.611,0.53,9.195c0-1.415,0.267-2.69,0.795-3.825
			C1.858,4.236,2.61,3.27,3.582,2.474C4.555,1.678,5.733,1.067,7.12,0.64C8.505,0.212,10.067,0,11.807,0
			c2.063,0,3.846,0.218,5.351,0.66c1.501,0.442,2.742,0.929,3.713,1.462L18.882,7.56c-0.854-0.442-1.806-0.833-2.853-1.171
			c-1.046-0.34-2.306-0.51-3.781-0.51c-1.651,0-2.836,0.229-3.559,0.686C7.967,7.022,7.606,7.721,7.606,8.664
			c0,0.562,0.133,1.033,0.397,1.417c0.265,0.383,0.641,0.728,1.129,1.038c0.484,0.309,1.044,0.591,1.68,0.84
			c0.633,0.25,1.332,0.511,2.101,0.774c1.589,0.589,2.976,1.17,4.155,1.745c1.179,0.575,2.16,1.245,2.942,2.011
			c0.779,0.769,1.363,1.666,1.745,2.699c0.383,1.034,0.575,2.287,0.575,3.759c0,2.859-1,5.076-3.007,6.653
			c-2.005,1.582-5.025,2.367-9.063,2.367c-1.357,0-2.579-0.083-3.672-0.24c-1.089-0.163-2.057-0.364-2.896-0.599
			c-0.839-0.237-1.562-0.485-2.165-0.756C0.921,30.109,0.414,29.861,0,29.625l1.946-5.483c0.914,0.504,2.04,0.949,3.384,1.348
			C6.669,25.89,8.313,26.084,10.26,26.084z"/>
		<path fill="#B5B5B5" d="M36.833,0.351c4.571,0,8.079,0.805,10.524,2.412c2.448,1.605,3.669,4.236,3.669,7.891
			c0,3.685-1.236,6.346-3.713,7.981c-2.477,1.638-6.014,2.454-10.612,2.454h-2.166v10.259h-6.9V1.147
			c1.503-0.294,3.097-0.501,4.777-0.618C34.094,0.41,35.566,0.351,36.833,0.351z M37.276,6.233c-0.502,0-0.995,0.015-1.481,0.043
			c-0.486,0.031-0.908,0.06-1.259,0.09v8.842h2.166c2.386,0,4.187-0.324,5.396-0.971c1.208-0.65,1.811-1.859,1.811-3.627
			c0-0.856-0.156-1.562-0.463-2.123c-0.31-0.561-0.751-1.011-1.328-1.348c-0.574-0.338-1.275-0.576-2.1-0.708
			C39.192,6.299,38.278,6.233,37.276,6.233z"/>
		<path fill="#B5B5B5" d="M65.088,0.351c4.6,0,8.122,0.818,10.57,2.454c2.446,1.636,3.671,4.179,3.671,7.628
			c0,2.152-0.496,3.898-1.484,5.241c-0.988,1.342-2.41,2.395-4.265,3.16c0.618,0.768,1.264,1.645,1.943,2.633
			c0.678,0.988,1.351,2.019,2.013,3.093c0.664,1.078,1.303,2.197,1.922,3.36c0.622,1.166,1.194,2.307,1.727,3.429h-7.713
			c-0.562-1.004-1.133-2.017-1.708-3.047c-0.58-1.039-1.168-2.039-1.777-3.012c-0.606-0.976-1.206-1.892-1.796-2.765
			c-0.592-0.867-1.187-1.656-1.777-2.363h-3.405v11.187h-6.898V1.147c1.504-0.294,3.059-0.501,4.665-0.618
			C62.385,0.41,63.822,0.351,65.088,0.351z M65.488,6.233c-0.501,0-0.951,0.015-1.349,0.043c-0.4,0.031-0.773,0.06-1.128,0.09v8.313
			h1.947c2.593,0,4.45-0.327,5.569-0.974c1.121-0.647,1.684-1.753,1.684-3.316c0-1.503-0.57-2.569-1.704-3.208
			C69.37,6.55,67.698,6.233,65.488,6.233z"/>
		<path fill="#B5B5B5" d="M85.607,0.706h6.897v30.643h-6.897V0.706z"/>
		<path fill="#B5B5B5" d="M120.143,31.349c-1.976-3.507-4.117-6.97-6.413-10.391c-2.303-3.419-4.747-6.647-7.344-9.685v20.076
			h-6.806V0.706h5.613c0.976,0.972,2.05,2.167,3.233,3.58c1.176,1.417,2.377,2.928,3.6,4.533c1.224,1.607,2.44,3.27,3.646,4.997
			c1.212,1.725,2.345,3.383,3.407,4.977V0.706h6.854v30.643H120.143z"/>
		<path fill="#B5B5B5" d="M147.955,6.013c-3.213,0-5.536,0.892-6.966,2.674c-1.427,1.785-2.144,4.226-2.144,7.32
			c0,1.502,0.177,2.867,0.529,4.089c0.355,1.222,0.887,2.277,1.593,3.162c0.706,0.883,1.597,1.57,2.656,2.056
			c1.061,0.484,2.296,0.73,3.714,0.73c0.764,0,1.42-0.016,1.967-0.045c0.546-0.027,1.023-0.091,1.438-0.181V15.165h6.896v15.169
			c-0.826,0.324-2.154,0.669-3.98,1.036c-1.83,0.368-4.086,0.554-6.766,0.554c-2.298,0-4.382-0.354-6.258-1.06
			c-1.87-0.71-3.468-1.742-4.796-3.097c-1.329-1.355-2.35-3.021-3.07-4.997c-0.726-1.975-1.084-4.228-1.084-6.764
			c0-2.565,0.394-4.836,1.194-6.811c0.792-1.976,1.881-3.648,3.271-5.019c1.384-1.371,3.009-2.409,4.885-3.117
			c1.872-0.708,3.868-1.06,5.993-1.06c1.442,0,2.747,0.095,3.909,0.287c1.168,0.19,2.169,0.414,3.008,0.662
			c0.839,0.25,1.537,0.507,2.082,0.773c0.542,0.267,0.932,0.472,1.168,0.62l-1.987,5.528c-0.945-0.5-2.028-0.938-3.252-1.305
			C150.734,6.196,149.398,6.013,147.955,6.013z"/>
	</g>
	<polygon display="inline" fill="#B5B5B5" points="1.946,24.141 3.224,24.185 3.481,24.951 2.012,24.546 	"/>
	<polygon display="inline" fill="#B5B5B5" points="18.882,7.56 20.16,7.604 19.887,5.263 18.606,6.513 	"/>
	<polygon display="inline" fill="#B5B5B5" points="155.208,7.87 156.487,7.913 156.418,5.201 154.512,5.669 	"/>
</g>
<g>
	<path fill="#FFFFFF" d="M11.538,26.128c0.973,0,1.774-0.082,2.408-0.24c0.633-0.16,1.143-0.385,1.527-0.664
		c0.383-0.277,0.647-0.609,0.796-0.994c0.146-0.385,0.22-0.811,0.22-1.281c0-1.003-0.47-1.835-1.415-2.5
		c-0.942-0.662-2.563-1.375-4.863-2.145c-1.002-0.353-2.005-0.759-3.008-1.217c-1.002-0.456-1.902-1.033-2.697-1.723
		c-0.795-0.691-1.447-1.533-1.944-2.522c-0.502-0.986-0.754-2.187-0.754-3.603c0-1.415,0.267-2.69,0.795-3.825
		c0.533-1.135,1.285-2.101,2.256-2.897C5.833,1.721,7.011,1.11,8.398,0.684c1.385-0.428,2.947-0.64,4.687-0.64
		c2.063,0,3.846,0.218,5.351,0.66c1.501,0.442,2.742,0.929,3.713,1.462L20.16,7.604c-0.854-0.442-1.806-0.833-2.853-1.171
		c-1.046-0.34-2.306-0.51-3.781-0.51c-1.651,0-2.836,0.229-3.559,0.686C9.245,7.065,8.884,7.765,8.884,8.707
		c0,0.562,0.133,1.033,0.397,1.417c0.265,0.383,0.641,0.728,1.129,1.038c0.484,0.309,1.044,0.591,1.68,0.84
		c0.633,0.25,1.332,0.511,2.101,0.774c1.589,0.589,2.976,1.17,4.155,1.745c1.179,0.575,2.16,1.245,2.942,2.011
		c0.779,0.769,1.363,1.666,1.745,2.699c0.383,1.034,0.575,2.287,0.575,3.759c0,2.86-1,5.077-3.007,6.653
		c-2.005,1.582-5.025,2.367-9.063,2.367c-1.357,0-2.579-0.082-3.672-0.24c-1.089-0.162-2.057-0.363-2.896-0.598
		c-0.839-0.238-1.562-0.486-2.165-0.756c-0.606-0.266-1.114-0.514-1.527-0.75l1.946-5.482c0.914,0.504,2.04,0.949,3.384,1.348
		C7.947,25.933,9.591,26.128,11.538,26.128z"/>
	<path fill="#FFFFFF" d="M38.111,0.395c4.571,0,8.079,0.805,10.524,2.412c2.448,1.605,3.669,4.236,3.669,7.891
		c0,3.685-1.236,6.346-3.713,7.981c-2.477,1.638-6.014,2.454-10.612,2.454h-2.166v10.259h-6.9V1.191
		c1.503-0.294,3.097-0.501,4.777-0.618C35.372,0.454,36.844,0.395,38.111,0.395z M38.554,6.277c-0.502,0-0.995,0.015-1.481,0.043
		c-0.486,0.031-0.908,0.06-1.259,0.09v8.842h2.166c2.386,0,4.187-0.324,5.396-0.971c1.208-0.65,1.811-1.859,1.811-3.627
		c0-0.856-0.156-1.562-0.463-2.123c-0.31-0.561-0.751-1.011-1.328-1.348c-0.574-0.338-1.275-0.576-2.1-0.708
		C40.47,6.342,39.556,6.277,38.554,6.277z"/>
	<path fill="#FFFFFF" d="M66.366,0.395c4.6,0,8.122,0.818,10.57,2.454c2.446,1.636,3.671,4.179,3.671,7.628
		c0,2.152-0.496,3.898-1.484,5.241c-0.988,1.342-2.41,2.395-4.265,3.16c0.618,0.768,1.264,1.645,1.943,2.633
		c0.678,0.988,1.351,2.019,2.013,3.093c0.664,1.078,1.303,2.197,1.922,3.361c0.622,1.166,1.194,2.307,1.727,3.428h-7.713
		c-0.562-1.004-1.133-2.016-1.708-3.047c-0.58-1.039-1.168-2.039-1.777-3.012c-0.606-0.975-1.206-1.892-1.796-2.765
		c-0.592-0.867-1.187-1.656-1.777-2.363h-3.405v11.186h-6.898V1.191c1.504-0.294,3.059-0.501,4.665-0.618
		C63.663,0.454,65.1,0.395,66.366,0.395z M66.766,6.277c-0.501,0-0.951,0.015-1.349,0.043c-0.4,0.031-0.773,0.06-1.128,0.09v8.313
		h1.947c2.593,0,4.45-0.327,5.569-0.974c1.121-0.647,1.684-1.753,1.684-3.316c0-1.503-0.57-2.569-1.704-3.208
		C70.647,6.594,68.976,6.277,66.766,6.277z"/>
	<path fill="#FFFFFF" d="M86.885,0.75h6.899v30.643h-6.899V0.75z"/>
	<path fill="#FFFFFF" d="M121.422,31.392c-1.977-3.506-4.117-6.969-6.414-10.39c-2.303-3.419-4.746-6.647-7.344-9.685v20.075h-6.805
		V0.75h5.613c0.975,0.972,2.049,2.167,3.232,3.58c1.176,1.417,2.377,2.928,3.6,4.533c1.225,1.607,2.441,3.27,3.646,4.997
		c1.213,1.725,2.346,3.383,3.408,4.977V0.75h6.854v30.643H121.422z"/>
	<path fill="#FFFFFF" d="M149.233,6.056c-3.213,0-5.535,0.892-6.965,2.674c-1.428,1.785-2.145,4.226-2.145,7.32
		c0,1.502,0.178,2.867,0.529,4.089c0.355,1.222,0.887,2.277,1.594,3.162c0.705,0.884,1.596,1.569,2.656,2.056
		c1.061,0.484,2.295,0.73,3.713,0.73c0.764,0,1.42-0.016,1.967-0.045c0.547-0.027,1.023-0.09,1.439-0.18V15.208h6.896v15.168
		c-0.826,0.324-2.154,0.67-3.98,1.037c-1.83,0.367-4.086,0.553-6.766,0.553c-2.299,0-4.383-0.354-6.258-1.059
		c-1.871-0.711-3.469-1.742-4.797-3.098s-2.35-3.021-3.07-4.997c-0.725-1.975-1.084-4.228-1.084-6.764
		c0-2.565,0.395-4.836,1.195-6.811c0.791-1.976,1.881-3.648,3.27-5.019c1.385-1.371,3.01-2.409,4.885-3.117
		c1.873-0.708,3.869-1.06,5.994-1.06c1.441,0,2.746,0.095,3.908,0.287c1.168,0.19,2.17,0.414,3.008,0.662
		c0.84,0.25,1.537,0.507,2.082,0.773c0.543,0.267,0.932,0.472,1.168,0.62l-1.986,5.528c-0.945-0.5-2.029-0.938-3.252-1.305
		C152.012,6.239,150.676,6.056,149.233,6.056z"/>
</g>
</svg>
